<svg width="50" height="50" viewBox="0 0 50 50" fill="none" xmlns="http://www.w3.org/2000/svg">
<path fill-rule="evenodd" clip-rule="evenodd" d="M31.2501 20.8333C31.2501 20.8333 38.5459 14.8438 38.5459 9.37501C38.5459 5.34793 35.2792 2.08334 31.2501 2.08334C27.2209 2.08334 23.9542 5.34793 23.9542 9.37501C23.9542 14.8438 31.2501 20.8333 31.2501 20.8333Z" stroke="white" stroke-width="3" stroke-linecap="round" stroke-linejoin="round"/>
<path d="M31.2521 9.06249C31.5396 9.06249 31.773 9.29582 31.7709 9.58332C31.7709 9.87082 31.5375 10.1042 31.25 10.1042C30.9625 10.1042 30.7292 9.87082 30.7292 9.58332C30.7292 9.29582 30.9625 9.06249 31.2521 9.06249" stroke="white" stroke-width="3" stroke-linecap="round" stroke-linejoin="round"/>
<path d="M24.0229 8.38541C14.125 8.89791 6.25 17.0583 6.25 27.0833C6.25 37.4396 14.6437 45.8333 25 45.8333C35.3562 45.8333 43.75 37.4396 43.75 27.0833C43.75 21.5583 41.35 16.6083 37.5479 13.1854" stroke="white" stroke-width="3" stroke-linecap="round" stroke-linejoin="round"/>
<path d="M16.6667 43.8917V43.7437C16.6667 39.5771 25 40.0687 25 35.4104C25 31.2437 18.75 31.2437 18.75 24.9937C18.75 19.1021 14.5834 18.7437 8.33338 18.7437H8.2063" stroke="white" stroke-width="3" stroke-linecap="round" stroke-linejoin="round"/>
<path d="M37.4376 41.0833C37.123 40.9625 36.8105 40.8354 36.5126 40.6604C33.5209 38.9104 32.5167 35.0688 34.2646 32.0771C36.0146 29.0854 39.8563 28.0813 42.848 29.8292C43.0688 29.9583 43.2542 30.1208 43.4542 30.2708" stroke="white" stroke-width="3" stroke-linecap="round" stroke-linejoin="round"/>
</svg>
